# xmcd
#
# Track frame offsets:
#	150
#	18330
#	40290
#	59673
#	73445
#	90358
#	105658
#	122212
#	138943
#	157123
#	179083
#	198466
#	212238
#	229151
#	244451
#	261005
#	289129
#
# Disc length: 3859 seconds
#
# Revision: 0
# Processed by: cddbd v1.5.2PL0 Copyright (c) Steve Scherf et al.
# Submitted via: audiograbber 1.83.01
#
DISCID=0e0f1111
DTITLE=Various Artist - Country Hits
DYEAR=1900
DGENRE=
TTITLE0=Alan Jackson - Work In Progress (vocals)
TTITLE1=Diamond Rio - Beautiful Mess (vocals)
TTITLE2=Dixie Chicks - Cold Day In July (vocals)
TTITLE3=Toby Keith - I'm Just Talking About Tonight (vocals)
TTITLE4=Faith Hill - Cry (vocals)
TTITLE5=Tim McGraw - In My Next Thirty Years (vocals)
TTITLE6=Jessica Andrews - Who I Am (vocals)
TTITLE7=Toby Keith - You Shouldn't Kiss Me Like This (vocals)
TTITLE8=Alan Jackson - Work In Progress
TTITLE9=Diamond Rio - Beautiful Mess
TTITLE10=Dixie Chicks - Cold Day In July
TTITLE11=Toby Keith - I'm Just Talking About Tonight
TTITLE12=Faith Hill - Cry
TTITLE13=Tim McGraw - In My Next Thirty Years
TTITLE14=Jessica Andrews - Who I Am
TTITLE15=Toby Keith - You Shouldn't Kiss Me Like This
TTITLE16=Blank 1 - Blank
EXTD=
EXTT0=
EXTT1=
EXTT2=
EXTT3=
EXTT4=
EXTT5=
EXTT6=
EXTT7=
EXTT8=
EXTT9=
EXTT10=
EXTT11=
EXTT12=
EXTT13=
EXTT14=
EXTT15=
EXTT16=
PLAYORDER=
